<svg xmlns="http://www.w3.org/2000/svg" width="471" height="100" fill="none" viewBox="0 0 471 100"><path fill="#000" d="M116.9 54.2H45.2c-.7-1.5-1.1-3.1-1.1-4.9s.4-3.4 1.1-4.9h71.7c.2-2.8.5-5.5 1-8.2H41c-3.1 3.5-5 8-5 13.1 0 5 1.9 9.6 5 13.1h76.9c-.5-2.7-.8-5.5-1-8.2"/><path fill="#000" d="M129.1 90.1H22.5c-9-11.2-14.3-25.4-14.3-40.8 0-15.5 5.4-29.6 14.3-40.8h106.6c1.9-2.9 4-5.6 6.3-8.2H18.7C7.1 13.3 0 30.4 0 49.3s7.1 36 18.7 49h116.7c-2.2-2.6-4.4-5.3-6.3-8.2"/><path fill="#000" d="M120.4 72.1H33.8c-4.8-6.4-7.6-14.3-7.6-22.9s2.8-16.5 7.6-22.9h86.6c.9-2.8 2-5.5 3.2-8.2H29.9C22.5 26.5 18 37.3 18 49.3c0 11.9 4.5 22.8 11.9 31h93.7c-1.2-2.6-2.3-5.4-3.2-8.2m45.7-33.9c-2.6-2.4-3.9-6.2-3.9-11.3V.3h6.8v26.2c0 3.2.7 5.5 2.2 7s3.8 2.3 7.1 2.3c3.2 0 5.6-.8 7.1-2.3s2.3-3.9 2.3-7V.3h6.8V27c0 5.1-1.3 8.9-3.9 11.3s-6.7 3.6-12.2 3.6c-5.6-.1-9.7-1.3-12.3-3.7M225.4 14c1.9 2 2.9 5 2.9 8.8v18h-6.5V24.2c0-2.6-.5-4.5-1.6-5.8-1.1-1.2-2.7-1.8-4.9-1.8-2.3 0-4.1.7-5.3 2s-1.8 3.3-1.8 5.9v16.4h-6.6v-29h6.6v3.3c2-2.7 5-4 9.1-4 3.4-.2 6.1.8 8.1 2.8m15.8-2.2h-6.6v29h6.6zm3.8 0h7.1l7.9 21.6 7.9-21.6h7.1l-11.3 29h-7.3zm53.9 21c.3-.7.5-1.3.6-2h6.5c-.3 2.9-1.4 5.3-3.4 7.2-1.3 1.1-2.9 2-4.7 2.6-1.9.6-3.9.9-6.1.9-3.4 0-6.3-.7-8.7-2s-4.1-3.2-5.2-5.7c-.9-2.1-1.4-4.7-1.4-7.6 0-1.5.1-2.9.4-4.1.2-1.2.6-2.4 1.1-3.4q1.65-3.6 5.1-5.7c2.3-1.3 5.1-2 8.3-2s6 .7 8.3 2 4 3.2 5.1 5.6q.9 1.95 1.2 4.2c.2 1.5.3 3.2.3 5.2H283c.1 1.7.4 3.1.9 4.1.6 1.3 1.5 2.4 2.8 3.1s2.9 1.1 4.9 1.1c1.3 0 2.4-.2 3.4-.5s1.9-.8 2.5-1.4c.6-.4 1-.9 1.4-1.6m-15-12.3c-.4.9-.7 1.8-.8 2.8h16.3c-.1-1-.4-2-.7-3-.6-1.3-1.6-2.3-2.8-3s-2.7-1-4.6-1c-3.7 0-6.2 1.4-7.4 4.2m44.7-8.8v5.8q-1.35-.3-3-.3c-2.5 0-4.4.8-5.7 2.3s-1.9 3.7-1.9 6.6v14.7h-6.6v-29h6.5v3.4c1.7-2.5 4.3-3.8 7.7-3.8q1.8 0 3 .3m8 28.6c-2-.9-3.4-2.4-4.2-4.3-.6-1.4-.9-3-.9-4.9h6.4c0 1.1.2 2 .6 2.8.9 1.9 2.7 2.8 5.6 2.8s4.7-.8 5.3-2.3q.3-.75.3-1.5 0-.9-.3-1.5c-.3-.6-.7-1.1-1.3-1.4-.6-.4-1.4-.7-2.3-.9-.9-.3-2.1-.5-3.8-.9-2.2-.5-4.1-1.2-5.6-2s-2.6-2-3.3-3.5c-.4-.9-.6-2-.6-3.2 0-1.3.2-2.4.7-3.4.7-1.6 2.1-2.9 3.9-3.8 1.9-.9 4.1-1.3 6.7-1.3s4.9.4 6.7 1.3 3.2 2.2 4 3.9c.5 1.2.8 2.6.8 4.3h-6.2c0-.9-.2-1.7-.5-2.4-.4-.8-1-1.4-1.9-1.8s-1.9-.6-3.1-.6c-2.4 0-3.9.7-4.6 2-.2.4-.2.8-.2 1.4 0 .5.1.9.2 1.2q.45.9 1.5 1.5c.7.4 1.5.7 2.3.9l3.6.9c2.4.6 4.5 1.4 6 2.2 1.6.9 2.7 2 3.4 3.5q.6 1.35.6 3.3c0 1.4-.2 2.7-.7 3.9-.8 1.8-2.3 3.1-4.4 4.1-2.1.9-4.6 1.4-7.4 1.4-2.9-.3-5.3-.7-7.3-1.7m31.6-28.5h-6.6v29h6.6zM402.8.3v40.6h-6.4v-3.5c-1.1 1.4-2.5 2.4-4.1 3.1s-3.5 1.1-5.5 1.1c-2.8 0-5.3-.6-7.3-1.9s-3.5-3-4.6-5.3c-.5-1.1-.9-2.4-1.2-3.8s-.4-2.8-.4-4.2c0-3 .5-5.7 1.6-8.1 1-2.3 2.5-4.1 4.6-5.3 2-1.3 4.4-1.9 7.3-1.9 2 0 3.8.3 5.5 1 1.6.7 3 1.7 4.1 3.1V.3zm-6.5 25.2q0-4.35-2.1-6.6c-1.4-1.5-3.3-2.3-5.8-2.3-1.7 0-3.2.3-4.4 1s-2.2 1.7-2.8 3.1c-.6 1.5-.9 3.4-.9 5.6s.3 4 .9 5.5c.6 1.4 1.6 2.4 2.8 3.1s2.7 1.1 4.4 1.1c2.4 0 4.4-.8 5.8-2.3 1.4-1.6 2.1-3.8 2.1-6.7zm39.3-1.7v17H429v-3.3c-2.1 2.6-5.4 4-10 4-2.6 0-4.7-.4-6.5-1.2s-3-2.1-3.7-3.7c-.5-1.1-.8-2.4-.8-3.9s.2-2.7.7-3.8c1-2.2 2.7-3.7 5-4.5 2.4-.8 5.4-1.2 9.2-1.2h6v-.8c0-.7 0-1.4-.1-1.9s-.2-1-.5-1.5c-.9-1.9-2.9-2.8-6-2.8-1.6 0-2.9.2-4 .7-1 .4-1.8 1.1-2.2 2.1-.3.7-.4 1.4-.4 2h-6.6c0-1.7.3-3.1.8-4.2q2.55-5.7 12.3-5.7c3.2 0 5.8.5 7.8 1.4s3.4 2.4 4.3 4.4c.9 1.7 1.3 4 1.3 6.9m-6.6 4.5V28h-5.6c-2.2 0-4 .2-5.4.5-1.4.4-2.4 1-2.8 2-.2.5-.4 1-.4 1.7 0 .6.1 1.2.4 1.8q.6 1.2 2.1 1.8c1 .4 2.2.6 3.5.6 1.9 0 3.5-.3 4.7-1 1.3-.7 2.2-1.7 2.8-3 .5-1.2.7-2.5.7-4.1m41.2-28v40.6h-6.4v-3.5c-1.1 1.4-2.5 2.4-4.1 3.1s-3.5 1.1-5.5 1.1c-2.8 0-5.3-.6-7.3-1.9s-3.5-3-4.6-5.3c-.5-1.1-.9-2.4-1.2-3.8s-.4-2.8-.4-4.2c0-3 .5-5.7 1.6-8.1 1-2.3 2.5-4.1 4.6-5.3 2-1.3 4.4-1.9 7.3-1.9 2 0 3.8.3 5.5 1 1.6.7 3 1.7 4.1 3.1V.3zm-6.6 25.2q0-4.35-2.1-6.6c-1.4-1.5-3.3-2.3-5.8-2.3-1.7 0-3.2.3-4.4 1s-2.2 1.7-2.8 3.1c-.6 1.5-.9 3.4-.9 5.6s.3 4 .9 5.5c.6 1.4 1.6 2.4 2.8 3.1s2.7 1.1 4.4 1.1c2.4 0 4.4-.8 5.8-2.3 1.4-1.6 2.1-3.8 2.1-6.7zM170.3 96.2c-3-1.8-5.3-4.4-6.8-7.8q-2.1-4.65-2.1-11.4c0-4.4.7-8.3 2.1-11.5 1.5-3.3 3.8-5.9 6.8-7.7q4.5-2.7 11.1-2.7 4.05 0 7.5 1.2c2.3.8 4.3 2 5.9 3.5 1.5 1.4 2.7 3.1 3.6 5 .9 2 1.3 4.1 1.4 6.5h-7.2c-.2-3-1.2-5.4-3.1-7.2-2.1-1.9-4.9-2.8-8.4-2.8-2.7 0-5 .6-6.8 1.7q-2.85 1.65-4.2 4.8c-.5 1.2-.9 2.6-1.2 4.1s-.4 3.3-.4 5.2c0 2 .1 3.8.4 5.3.2 1.5.6 2.9 1.2 4.1.9 2.1 2.4 3.7 4.2 4.8 1.9 1.1 4.1 1.7 6.8 1.7 1.8 0 3.4-.2 4.9-.7s2.7-1.2 3.7-2.1c1.9-1.7 3-4.2 3.1-7.4h7.2c0 2.4-.5 4.5-1.3 6.5-.9 2-2 3.7-3.6 5.1-1.7 1.5-3.7 2.7-6 3.5s-4.9 1.2-7.6 1.2c-4.4-.2-8.1-1.1-11.2-2.9m41.1.4q-3.45-2.1-5.1-5.7c-1-2.1-1.5-4.6-1.5-7.4q0-4.2 1.5-7.5c1.1-2.4 2.8-4.4 5.1-5.7q3.45-2.1 8.4-2.1t8.4 2.1 5.1 5.7q1.5 3.3 1.5 7.5 0 4.05-1.5 7.5-1.65 3.75-5.1 5.7c-2.3 1.4-5.1 2-8.4 2q-4.95-.15-8.4-2.1m12.9-4.6c1.2-.7 2.1-1.7 2.7-3.1.6-1.3.9-3.2.9-5.6s-.3-4.3-.9-5.6-1.5-2.4-2.7-3.1-2.7-1.1-4.5-1.1-3.3.4-4.4 1.1c-1.2.7-2.1 1.7-2.7 3.1s-.9 3.2-.9 5.6c0 2.3.3 4.1.9 5.6.6 1.3 1.5 2.3 2.7 3.1 1.2.7 2.7 1.1 4.4 1.1 1.8 0 3.3-.3 4.5-1.1m39.6-20.9c1.9 2 2.9 5 2.9 8.8v18h-6.5V81.3c0-2.6-.5-4.5-1.6-5.8-1.1-1.2-2.7-1.8-4.9-1.8-2.3 0-4.1.7-5.3 2s-1.8 3.3-1.8 5.9V98H240V69h6.6v3.3c2-2.7 5-4 9.1-4 3.5-.2 6.3.8 8.2 2.8m13.6 25.1c-1.4-1.5-2.2-3.9-2.2-7.2V74.3h-4.5v-5.4h4.5V57.1h6.5v11.8h8.2v5.4h-8.2v13.5c0 1.7.4 3 1.1 3.8s1.9 1.2 3.4 1.2c1.3 0 2.4-.2 3.5-.5v5.5c-1.9.4-3.7.6-5.5.6-3 0-5.3-.7-6.8-2.2m25.3-27.3h-6.6v29h6.6zm30.8 2.2c1.9 2 2.9 5 2.9 8.8v18H330V81.3c0-2.6-.5-4.5-1.6-5.8-1.1-1.2-2.7-1.8-4.9-1.8-2.3 0-4.1.7-5.3 2s-1.8 3.3-1.8 5.9V98h-6.6V69h6.6v3.3c2-2.7 5-4 9.1-4 3.4-.2 6.1.8 8.1 2.8m30.6 18.8c.3-.7.5-1.3.6-2h6.5c-.3 2.9-1.4 5.3-3.4 7.2-1.3 1.1-2.9 2-4.7 2.6-1.9.6-3.9.9-6.1.9-3.4 0-6.3-.7-8.7-2s-4.1-3.2-5.2-5.7c-.9-2.1-1.4-4.7-1.4-7.6 0-1.5.1-2.9.4-4.1.2-1.2.6-2.4 1.1-3.4q1.65-3.6 5.1-5.7c2.3-1.3 5.1-2 8.3-2s6 .7 8.3 2 4 3.2 5.1 5.6q.9 1.95 1.2 4.2c.2 1.5.3 3.2.3 5.2h-23.2c.1 1.7.4 3.1.9 4.1.6 1.3 1.5 2.4 2.8 3.1s2.9 1.1 4.9 1.1c1.3 0 2.4-.2 3.4-.5s1.9-.8 2.5-1.4c.6-.4 1-1 1.3-1.6m-14.9-12.3c-.4.9-.7 1.8-.8 2.8h16.3c-.1-1-.4-2-.7-3-.6-1.3-1.6-2.3-2.8-3s-2.7-1-4.6-1c-3.7 0-6.2 1.4-7.4 4.2m51.7-6.5c1.9 2 2.9 5 2.9 8.8v18h-6.5V81.3c0-2.6-.5-4.5-1.6-5.8-1.1-1.2-2.7-1.8-4.9-1.8-2.3 0-4.1.7-5.3 2s-1.8 3.3-1.8 5.9V98h-6.6V69h6.6v3.3c2-2.7 5-4 9.1-4 3.4-.2 6.2.8 8.1 2.8m13.6 25.1c-1.4-1.5-2.2-3.9-2.2-7.2V74.3H408v-5.4h4.5V57.1h6.5v11.8h8.2v5.4H419v13.5c0 1.7.4 3 1.1 3.8s1.9 1.2 3.4 1.2c1.3 0 2.4-.2 3.5-.5v5.5c-1.9.4-3.7.6-5.5.6-3.1 0-5.4-.7-6.9-2.2m43.9-15.3v17H452v-3.3c-2.1 2.6-5.4 4-10 4-2.6 0-4.7-.4-6.5-1.2s-3-2.1-3.7-3.7c-.5-1.1-.8-2.4-.8-3.9s.2-2.7.7-3.8c1-2.2 2.7-3.7 5-4.5 2.4-.8 5.4-1.2 9.2-1.2h6v-.8c0-.7 0-1.4-.1-1.9s-.2-1-.5-1.5c-.9-1.9-2.9-2.8-6-2.8-1.6 0-2.9.2-4 .7-1 .4-1.8 1.1-2.2 2.1-.3.7-.4 1.4-.4 2h-6.6c0-1.7.3-3.1.8-4.2q2.55-5.7 12.3-5.7c3.2 0 5.8.5 7.8 1.4s3.4 2.4 4.3 4.4c.9 1.7 1.2 4 1.2 6.9m-6.5 4.5V85h-5.6c-2.2 0-4 .2-5.4.5-1.4.4-2.4 1-2.8 2-.2.5-.4 1-.4 1.7 0 .6.1 1.2.4 1.8q.6 1.2 2.1 1.8c1 .4 2.2.6 3.5.6 1.9 0 3.5-.3 4.7-1 1.3-.7 2.2-1.7 2.8-3 .4-1.1.7-2.4.7-4m11.7-28.3h6.6v40.8h-6.6zM237.9 7.8a3.9 3.9 0 1 0 0-7.8 3.9 3.9 0 0 0 0 7.8m61.6 56.8a3.9 3.9 0 1 0 0-7.8 3.9 3.9 0 0 0 0 7.8m65.4-56.8a3.9 3.9 0 1 0 0-7.8 3.9 3.9 0 0 0 0 7.8"/></svg>